<svg width="115" height="15" viewBox="0 0 115 15" fill="none" xmlns="http://www.w3.org/2000/svg">
<path d="M49.9251 14.741C53.9357 14.741 57.1869 11.4411 57.1869 7.37051C57.1869 3.29989 53.9357 0 49.9251 0C45.9145 0 42.6633 3.29989 42.6633 7.37051C42.6633 11.4411 45.9145 14.741 49.9251 14.741Z" fill="white"/>
<path d="M21.2773 14.4876C25.2743 14.4876 28.5146 11.2474 28.5146 7.25042C28.5146 3.2534 25.2743 0.0131836 21.2773 0.0131836C17.2803 0.0131836 14.0401 3.2534 14.0401 7.25042C14.0401 11.2474 17.2803 14.4876 21.2773 14.4876Z" fill="white"/>
<path d="M0 0.592285H13.3165V13.9088H0V0.592285Z" fill="white"/>
<path d="M26.8862 0.592285H37.7421L44.2918 13.9088H33.4359L26.8862 0.592285Z" fill="white"/>
<path d="M65.8486 14.0322C65.0008 14.0322 64.2513 13.8848 63.6001 13.5899C62.9612 13.295 62.4574 12.8834 62.0888 12.3551C61.7202 11.8267 61.5236 11.2369 61.499 10.5857H62.8629C62.9243 11.2124 63.2008 11.7653 63.6923 12.2445C64.1837 12.7114 64.9025 12.9448 65.8486 12.9448C66.721 12.9448 67.4091 12.7237 67.9129 12.2813C68.4289 11.8267 68.6869 11.2554 68.6869 10.5673C68.6869 10.0144 68.5456 9.57205 68.263 9.2403C67.9804 8.89626 67.6302 8.64438 67.2125 8.48465C66.7947 8.31263 66.2172 8.12832 65.48 7.93173C64.6199 7.69828 63.938 7.47097 63.4342 7.2498C62.9305 7.02863 62.5004 6.6846 62.1441 6.21769C61.7878 5.75078 61.6096 5.118 61.6096 4.31934C61.6096 3.65584 61.7816 3.06607 62.1257 2.55001C62.4697 2.02167 62.955 1.61005 63.5817 1.31516C64.2083 1.02028 64.9271 0.872832 65.738 0.872832C66.9299 0.872832 67.8883 1.16772 68.6132 1.7575C69.3504 2.33499 69.7743 3.0845 69.8849 4.00602H68.4842C68.3982 3.47768 68.1094 3.01077 67.618 2.6053C67.1265 2.18754 66.463 1.97866 65.6275 1.97866C64.8534 1.97866 64.2083 2.18754 63.6923 2.6053C63.1762 3.01077 62.9182 3.56983 62.9182 4.28248C62.9182 4.82311 63.0595 5.2593 63.3421 5.59105C63.6247 5.9228 63.9749 6.17469 64.3926 6.3467C64.8227 6.51872 65.4002 6.70303 66.1251 6.89962C66.9606 7.13307 67.6364 7.36653 68.1524 7.59998C68.6685 7.82115 69.1047 8.16518 69.461 8.63209C69.8173 9.099 69.9955 9.72564 69.9955 10.512C69.9955 11.1141 69.8358 11.6854 69.5163 12.226C69.1968 12.7667 68.7238 13.2029 68.0972 13.5346C67.4705 13.8664 66.721 14.0322 65.8486 14.0322Z" fill="white"/>
<path d="M73.7971 4.92755V11.1755C73.7971 11.7899 73.9138 12.2138 74.1473 12.4472C74.3807 12.6807 74.7923 12.7974 75.3821 12.7974H76.5617V13.9032H75.1794C74.2701 13.9032 73.5944 13.6943 73.152 13.2766C72.7097 12.8465 72.4885 12.1462 72.4885 11.1755V4.92755H71.0878V3.84015H72.4885V1.31516H73.7971V3.84015H76.5617V4.92755H73.7971Z" fill="white"/>
<path d="M87.0384 3.84015V13.9032H85.7483V12.1339C85.4534 12.7605 84.9988 13.2397 84.3844 13.5715C83.7701 13.9032 83.082 14.0691 82.3202 14.0691C81.1161 14.0691 80.1331 13.7005 79.3713 12.9633C78.6095 12.2138 78.2286 11.1325 78.2286 9.71949V3.84015H79.5003V9.57205C79.5003 10.6656 79.7706 11.5011 80.3113 12.0786C80.8642 12.6561 81.6137 12.9448 82.5598 12.9448C83.5305 12.9448 84.3046 12.6377 84.8821 12.0233C85.4595 11.409 85.7483 10.5059 85.7483 9.31402V3.84015H87.0384Z" fill="white"/>
<path d="M89.0255 8.85326C89.0255 7.82115 89.2343 6.91805 89.6521 6.14397C90.0699 5.3576 90.6412 4.75553 91.3661 4.33777C92.1034 3.90773 92.9327 3.69271 93.8543 3.69271C94.7389 3.69271 95.5376 3.90773 96.2502 4.33777C96.9629 4.76782 97.4851 5.32688 97.8168 6.01495V0.264624H99.107V13.9032H97.8168V11.6547C97.5097 12.3551 97.0059 12.9326 96.3055 13.3872C95.6052 13.8295 94.7819 14.0507 93.8358 14.0507C92.9143 14.0507 92.0849 13.8356 91.3477 13.4056C90.6228 12.9756 90.0514 12.3673 89.6337 11.581C89.2282 10.7946 89.0255 9.88537 89.0255 8.85326ZM97.8168 8.87169C97.8168 8.06074 97.651 7.3481 97.3192 6.73374C96.9875 6.11939 96.5328 5.64634 95.9553 5.31459C95.3901 4.98284 94.7635 4.81697 94.0754 4.81697C93.3628 4.81697 92.7239 4.9767 92.1587 5.29616C91.5935 5.61562 91.145 6.08253 90.8132 6.69688C90.4938 7.29895 90.334 8.01774 90.334 8.85326C90.334 9.67649 90.4938 10.4014 90.8132 11.0281C91.145 11.6424 91.5935 12.1155 92.1587 12.4472C92.7239 12.7667 93.3628 12.9264 94.0754 12.9264C94.7635 12.9264 95.3901 12.7605 95.9553 12.4288C96.5328 12.097 96.9875 11.624 97.3192 11.0096C97.651 10.3953 97.8168 9.68263 97.8168 8.87169Z" fill="white"/>
<path d="M102.329 1.9418C102.071 1.9418 101.85 1.84965 101.665 1.66534C101.481 1.48104 101.389 1.25373 101.389 0.983415C101.389 0.7131 101.481 0.491933 101.665 0.319915C101.85 0.13561 102.071 0.043457 102.329 0.043457C102.587 0.043457 102.808 0.13561 102.992 0.319915C103.177 0.491933 103.269 0.7131 103.269 0.983415C103.269 1.25373 103.177 1.48104 102.992 1.66534C102.808 1.84965 102.587 1.9418 102.329 1.9418ZM102.974 3.84015V13.9032H101.684V3.84015H102.974Z" fill="white"/>
<path d="M109.932 14.0507C108.986 14.0507 108.132 13.8418 107.37 13.424C106.62 12.994 106.024 12.3919 105.582 11.6178C105.152 10.8315 104.937 9.91609 104.937 8.87169C104.937 7.82729 105.158 6.91805 105.6 6.14397C106.043 5.3576 106.645 4.75553 107.407 4.33777C108.168 3.90773 109.022 3.69271 109.968 3.69271C110.915 3.69271 111.769 3.90773 112.53 4.33777C113.304 4.75553 113.906 5.3576 114.336 6.14397C114.779 6.91805 115 7.82729 115 8.87169C115 9.9038 114.779 10.813 114.336 11.5994C113.894 12.3858 113.286 12.994 112.512 13.424C111.738 13.8418 110.878 14.0507 109.932 14.0507ZM109.932 12.9264C110.595 12.9264 111.209 12.779 111.775 12.4841C112.34 12.1769 112.794 11.7223 113.139 11.1202C113.495 10.5059 113.673 9.75635 113.673 8.87169C113.673 7.98702 113.501 7.24366 113.157 6.64159C112.813 6.02724 112.358 5.57262 111.793 5.27773C111.228 4.97056 110.614 4.81697 109.95 4.81697C109.287 4.81697 108.672 4.97056 108.107 5.27773C107.542 5.57262 107.087 6.02724 106.743 6.64159C106.411 7.24366 106.245 7.98702 106.245 8.87169C106.245 9.75635 106.411 10.5059 106.743 11.1202C107.087 11.7223 107.536 12.1769 108.089 12.4841C108.654 12.779 109.268 12.9264 109.932 12.9264Z" fill="white"/>
</svg>
