<svg width="177" height="120" viewBox="0 0 177 120" fill="none" xmlns="http://www.w3.org/2000/svg">
<path fill-rule="evenodd" clip-rule="evenodd" d="M30.8769 9.50586C32.2389 9.50586 33.3431 10.6142 33.3431 11.9815V54.7597C33.3431 56.1269 32.2389 57.2353 30.8769 57.2353C29.5148 57.2353 28.4107 56.1269 28.4107 54.7597V11.9815C28.4107 10.6142 29.5148 9.50586 30.8769 9.50586Z" fill="#FC714A"/>
<path fill-rule="evenodd" clip-rule="evenodd" d="M21.4071 14.2581C22.7692 14.2581 23.8733 15.3664 23.8733 16.7336V54.7587C23.8733 56.126 22.7692 57.2343 21.4071 57.2343C20.0451 57.2343 18.9409 56.126 18.9409 54.7587V16.7336C18.9409 15.3664 20.0451 14.2581 21.4071 14.2581Z" fill="#FC714A"/>
<path fill-rule="evenodd" clip-rule="evenodd" d="M21.4071 52.2839C22.7692 52.2839 23.8733 53.3923 23.8733 54.7595C23.8733 63.8929 31.2488 71.2965 40.3476 71.2965C41.7096 71.2965 42.8138 72.4048 42.8138 73.7721C42.8138 75.1393 41.7096 76.2477 40.3476 76.2477C28.5247 76.2477 18.9409 66.6274 18.9409 54.7595C18.9409 53.3923 20.0451 52.2839 21.4071 52.2839Z" fill="#FC714A"/>
<path fill-rule="evenodd" clip-rule="evenodd" d="M30.8769 52.2839C32.2389 52.2839 33.3431 53.3923 33.3431 54.7595C33.3431 58.6426 36.4788 61.7902 40.3471 61.7902C41.7092 61.7902 42.8133 62.8986 42.8133 64.2658C42.8133 65.633 41.7092 66.7414 40.3471 66.7414C33.7547 66.7414 28.4107 61.3771 28.4107 54.7595C28.4107 53.3923 29.5148 52.2839 30.8769 52.2839Z" fill="#FC714A"/>
<path fill-rule="evenodd" clip-rule="evenodd" d="M11.936 28.5189C13.298 28.5189 14.4022 29.6273 14.4022 30.9945V54.7602C14.4022 69.1439 26.0175 80.8034 40.3466 80.8034C41.7087 80.8034 42.8129 81.9118 42.8129 83.279C42.8129 84.6462 41.7087 85.7546 40.3466 85.7546C23.2934 85.7546 9.46976 71.8784 9.46976 54.7602V30.9945C9.46976 29.6273 10.5739 28.5189 11.936 28.5189Z" fill="#FC714A"/>
<path fill-rule="evenodd" clip-rule="evenodd" d="M49.8164 61.7926C51.1785 61.7926 52.2826 62.901 52.2826 64.2682V102.293C52.2826 103.66 51.1785 104.769 49.8164 104.769C48.4544 104.769 47.3502 103.66 47.3502 102.293V64.2682C47.3502 62.901 48.4544 61.7926 49.8164 61.7926Z" fill="#FC714A"/>
<path fill-rule="evenodd" clip-rule="evenodd" d="M59.2889 61.7926C60.651 61.7926 61.7551 62.901 61.7551 64.2682V78.5276C61.7551 79.8948 60.651 81.0032 59.2889 81.0032C57.9269 81.0032 56.8227 79.8948 56.8227 78.5276V64.2682C56.8227 62.901 57.9269 61.7926 59.2889 61.7926Z" fill="#FC714A"/>
<path fill-rule="evenodd" clip-rule="evenodd" d="M37.8818 54.7595C37.8818 53.3923 38.986 52.2839 40.348 52.2839C46.9405 52.2839 52.2845 57.6483 52.2845 64.2658C52.2845 65.633 51.1803 66.7414 49.8183 66.7414C48.4562 66.7414 47.352 65.633 47.352 64.2658C47.352 60.3827 44.2164 57.2351 40.348 57.2351C38.986 57.2351 37.8818 56.1268 37.8818 54.7595Z" fill="#FC714A"/>
<path fill-rule="evenodd" clip-rule="evenodd" d="M37.8818 45.2539C37.8818 43.8867 38.986 42.7783 40.348 42.7783C52.1709 42.7783 61.7547 52.3986 61.7547 64.2665C61.7547 65.6337 60.6505 66.742 59.2885 66.742C57.9264 66.742 56.8223 65.6337 56.8223 64.2665C56.8223 55.1331 49.4468 47.7295 40.348 47.7295C38.986 47.7295 37.8818 46.6211 37.8818 45.2539Z" fill="#FC714A"/>
<path fill-rule="evenodd" clip-rule="evenodd" d="M37.8818 35.7481C37.8818 34.3808 38.986 33.2725 40.348 33.2725C51.7797 33.2725 61.7573 39.5101 67.0913 48.7681C67.7732 49.9516 67.3702 51.466 66.1911 52.1505C65.012 52.835 63.5034 52.4304 62.8215 51.2468C58.333 43.4563 49.9478 38.2236 40.348 38.2236C38.986 38.2236 37.8818 37.1153 37.8818 35.7481Z" fill="#FC714A"/>
<path fill-rule="evenodd" clip-rule="evenodd" d="M68.756 61.7926C70.118 61.7926 71.2222 62.901 71.2222 64.2682V116.553C71.2222 117.92 70.118 119.028 68.756 119.028C67.3939 119.028 66.2898 117.92 66.2898 116.553V64.2682C66.2898 62.901 67.3939 61.7926 68.756 61.7926Z" fill="#FC714A"/>
<path fill-rule="evenodd" clip-rule="evenodd" d="M78.2257 66.5421C79.5878 66.5421 80.6919 67.6505 80.6919 69.0177V102.29C80.6919 103.657 79.5878 104.765 78.2257 104.765C76.8637 104.765 75.7595 103.657 75.7595 102.29V69.0177C75.7595 67.6505 76.8637 66.5421 78.2257 66.5421Z" fill="#FC714A"/>
<path fill-rule="evenodd" clip-rule="evenodd" d="M13.8634 82.0603C14.7488 81.0214 16.3056 80.8997 17.3406 81.7885C23.5304 87.1041 31.562 90.3115 40.3467 90.3115C41.7088 90.3115 42.8129 91.4198 42.8129 92.7871C42.8129 94.1543 41.7088 95.2627 40.3467 95.2627C30.3425 95.2627 21.1837 91.6047 14.1342 85.5507C13.0992 84.6619 12.978 83.0992 13.8634 82.0603Z" fill="#FC714A"/>
<path fill-rule="evenodd" clip-rule="evenodd" d="M2.46621 34.4608C3.82825 34.4608 4.93241 35.5692 4.93241 36.9364V44.0661C4.93241 45.4333 3.82825 46.5417 2.46621 46.5417C1.10416 46.5417 0 45.4333 0 44.0661V36.9364C0 35.5692 1.10416 34.4608 2.46621 34.4608Z" fill="#FC714A"/>
<path fill-rule="evenodd" clip-rule="evenodd" d="M11.936 0C13.298 0 14.4022 1.10836 14.4022 2.47559V21.4881C14.4022 22.8554 13.298 23.9637 11.936 23.9637C10.5739 23.9637 9.46976 22.8554 9.46976 21.4881V2.47559C9.46976 1.10836 10.5739 0 11.936 0Z" fill="#FC714A"/>
<path fill-rule="evenodd" clip-rule="evenodd" d="M2.46621 5.94336C3.82825 5.94336 4.93241 7.05172 4.93241 8.41895V17.9252C4.93241 19.2925 3.82825 20.4008 2.46621 20.4008C1.10416 20.4008 0 19.2925 0 17.9252V8.41895C0 7.05172 1.10416 5.94336 2.46621 5.94336Z" fill="#FC714A"/>
<path fill-rule="evenodd" clip-rule="evenodd" d="M56.5429 29.794C57.2037 28.5984 58.7049 28.1669 59.8959 28.8302C64.5088 31.3991 68.5665 34.8489 71.8426 38.9533C72.6942 40.0203 72.523 41.5783 71.46 42.4332C70.3971 43.2881 68.845 43.1162 67.9933 42.0492C65.1157 38.444 61.5517 35.4144 57.5031 33.1597C56.3121 32.4965 55.8822 30.9896 56.5429 29.794Z" fill="#FC714A"/>
<path fill-rule="evenodd" clip-rule="evenodd" d="M72.434 29.2272C73.4064 28.2698 74.9678 28.2849 75.9216 29.261C77.455 30.8302 78.8854 32.5011 80.2022 34.2609C81.0203 35.354 80.8005 36.9059 79.7115 37.727C78.6225 38.5482 77.0765 38.3276 76.2585 37.2344C75.0713 35.648 73.7819 34.1419 72.4004 32.728C71.4466 31.752 71.4617 30.1846 72.434 29.2272Z" fill="#FC714A"/>
<path fill-rule="evenodd" clip-rule="evenodd" d="M13.6321 94.086C14.3412 92.9187 15.8588 92.5494 17.0217 93.2613C18.2318 94.002 19.479 94.6865 20.7597 95.3104C21.9851 95.9073 22.4964 97.3884 21.9017 98.6184C21.3071 99.8484 19.8316 100.362 18.6063 99.7647C17.1823 99.0711 15.7968 98.3106 14.4537 97.4885C13.2908 96.7767 12.923 95.2533 13.6321 94.086Z" fill="#FC714A"/>
<path d="M94.3937 91.0469C93.158 91.0469 92.0281 90.7352 91.004 90.1118C89.9909 89.4884 89.1839 88.6535 88.5827 87.607C87.9927 86.5495 87.6977 85.375 87.6977 84.0837L87.7311 73.4135C87.7311 72.1444 88.0205 70.9978 88.5994 69.9737C89.1783 68.9384 89.9742 68.109 90.9873 67.4856C92.0114 66.8511 93.1469 66.5338 94.3937 66.5338C95.6628 66.5338 96.7927 66.8399 97.7835 67.4522C98.7854 68.0645 99.5813 68.8938 100.171 69.9403C100.772 70.9756 101.073 72.1333 101.073 73.4135V74.9831C101.073 75.0722 101.028 75.1167 100.939 75.1167H97.0988C97.0098 75.1167 96.9652 75.0722 96.9652 74.9831V73.4135C96.9652 72.6565 96.7203 72.0053 96.2305 71.4598C95.7407 70.9143 95.1284 70.6416 94.3937 70.6416C93.5811 70.6416 92.9577 70.9199 92.5235 71.4765C92.0894 72.0331 91.8723 72.6788 91.8723 73.4135V84.0837C91.8723 84.9186 92.1172 85.6032 92.607 86.1376C93.0968 86.6608 93.6924 86.9224 94.3937 86.9224C95.1284 86.9224 95.7407 86.633 96.2305 86.0541C96.7203 85.4641 96.9652 84.8073 96.9652 84.0837V82.4974C96.9652 82.4083 97.0098 82.3638 97.0988 82.3638H100.973C101.062 82.3638 101.106 82.4083 101.106 82.4974V84.0837C101.106 85.3639 100.806 86.5328 100.205 87.5903C99.5924 88.6368 98.7854 89.4772 97.7835 90.1118C96.7816 90.7352 95.6516 91.0469 94.3937 91.0469Z" fill="black"/>
<path d="M107.602 90.7129H103.728C103.639 90.7129 103.594 90.6572 103.594 90.5459L103.628 67.0515C103.628 66.9624 103.684 66.9179 103.795 66.9179H107.602C107.713 66.9179 107.769 66.9624 107.769 67.0515L107.736 76.3524H112.862V67.0515C112.862 66.9624 112.907 66.9179 112.996 66.9179H116.803C116.914 66.9179 116.97 66.9624 116.97 67.0515L117.037 90.5459C117.037 90.6572 116.981 90.7129 116.87 90.7129H113.029C112.918 90.7129 112.862 90.6572 112.862 90.5459V80.4936H107.736V90.5459C107.736 90.6572 107.691 90.7129 107.602 90.7129Z" fill="black"/>
<path d="M118.673 90.5459L122.914 67.0515C122.937 66.9624 122.992 66.9179 123.081 66.9179H128.041C128.13 66.9179 128.185 66.9624 128.208 67.0515L132.282 90.5459C132.293 90.6572 132.249 90.7129 132.148 90.7129H128.358C128.247 90.7129 128.185 90.6572 128.174 90.5459L127.807 88.0412H123.148L122.781 90.5459C122.77 90.6572 122.714 90.7129 122.614 90.7129H118.807C118.718 90.7129 118.673 90.6572 118.673 90.5459ZM125.72 74.7828L125.519 73.5137L125.369 74.7828L123.833 84.3843H127.122L125.72 74.7828Z" fill="black"/>
<path d="M138.143 90.7129H134.72C134.542 90.7129 134.453 90.635 134.453 90.4791L134.419 67.185C134.419 67.0069 134.509 66.9179 134.687 66.9179H137.776L143.553 80.3934L143.386 67.185C143.386 67.0069 143.487 66.9179 143.687 66.9179H147.077C147.21 66.9179 147.277 67.0069 147.277 67.185L147.311 90.5125C147.311 90.6461 147.255 90.7129 147.144 90.7129H144.138L138.21 78.1224L138.46 90.4457C138.46 90.6238 138.355 90.7129 138.143 90.7129Z" fill="black"/>
<path d="M156.545 91.0469C155.309 91.0469 154.196 90.7407 153.205 90.1285C152.203 89.5162 151.396 88.6924 150.784 87.6571C150.183 86.6218 149.882 85.4641 149.882 84.1839V73.3467C149.882 72.0999 150.188 70.9644 150.8 69.9403C151.402 68.905 152.209 68.0812 153.222 67.4689C154.235 66.8455 155.342 66.5338 156.545 66.5338C157.803 66.5338 158.938 66.8344 159.951 67.4355C160.964 68.0478 161.766 68.866 162.356 69.8902C162.957 70.9143 163.257 72.0665 163.257 73.3467V74.9163C163.257 75.0054 163.202 75.0499 163.09 75.0499H159.25C159.161 75.0499 159.116 75.0054 159.116 74.9163V73.6139C159.116 72.7456 158.871 72.0275 158.381 71.4598C157.892 70.8921 157.279 70.6082 156.545 70.6082C155.888 70.6082 155.303 70.8809 154.791 71.4264C154.279 71.9719 154.023 72.612 154.023 73.3467V84.1839C154.023 84.9297 154.274 85.5754 154.775 86.1209C155.276 86.6552 155.866 86.9224 156.545 86.9224C157.279 86.9224 157.892 86.6608 158.381 86.1376C158.871 85.6032 159.116 84.952 159.116 84.1839V82.4974H156.728C156.606 82.4974 156.545 82.4417 156.545 82.3304V78.5065C156.545 78.3951 156.606 78.3395 156.728 78.3395H163.124C163.213 78.3395 163.257 78.3951 163.257 78.5065V84.1839C163.257 85.4641 162.957 86.6218 162.356 87.6571C161.743 88.6924 160.936 89.5162 159.934 90.1285C158.933 90.7407 157.803 91.0469 156.545 91.0469Z" fill="black"/>
<path d="M176.866 90.7129H165.812C165.723 90.7129 165.679 90.6572 165.679 90.5459L165.712 67.0515C165.712 66.9624 165.757 66.9179 165.846 66.9179H176.833C176.922 66.9179 176.967 66.9735 176.967 67.0849V70.9088C176.967 70.9978 176.922 71.0423 176.833 71.0423H169.82V76.3858H176.833C176.922 76.3858 176.967 76.4303 176.967 76.5194L177 80.3934C177 80.4824 176.955 80.527 176.866 80.527H169.82V86.5049H176.866C176.955 86.5049 177 86.5606 177 86.6719V90.5793C177 90.6684 176.955 90.7129 176.866 90.7129Z" fill="black"/>
<path d="M80.6718 60.3922C79.7388 60.3922 78.904 60.2265 78.1675 59.895C77.4309 59.5636 76.8478 59.0664 76.4181 58.4035C76.0007 57.7283 75.792 56.8873 75.792 55.8807V55.494H77.3204V55.8807C77.3204 56.9487 77.6334 57.7467 78.2595 58.2746C78.8856 58.7902 79.6897 59.048 80.6718 59.048C81.6785 59.048 82.4457 58.8209 82.9736 58.3666C83.5015 57.9124 83.7654 57.3416 83.7654 56.6541C83.7654 56.1753 83.6427 55.7948 83.3971 55.5124C83.1639 55.2301 82.8324 55.0029 82.4028 54.8311C81.9731 54.6469 81.4698 54.4873 80.8928 54.3523L79.9352 54.1129C79.1864 53.9165 78.5235 53.6771 77.9465 53.3948C77.3695 53.1124 76.9153 52.7441 76.5838 52.2899C76.2646 51.8234 76.1051 51.228 76.1051 50.5037C76.1051 49.7794 76.2831 49.1533 76.6391 48.6254C77.0074 48.0976 77.5168 47.6925 78.1675 47.4101C78.8304 47.1277 79.5915 46.9866 80.4508 46.9866C81.3224 46.9866 82.102 47.14 82.7895 47.4469C83.4892 47.7416 84.0355 48.1835 84.4283 48.7728C84.8334 49.3497 85.036 50.0802 85.036 50.9641V51.7375H83.5076V50.9641C83.5076 50.338 83.3726 49.8347 83.1025 49.4541C82.8447 49.0735 82.4825 48.7912 82.0161 48.607C81.5618 48.4229 81.0401 48.3308 80.4508 48.3308C79.6038 48.3308 78.9224 48.5211 78.4068 48.9017C77.8912 49.27 77.6334 49.7978 77.6334 50.4853C77.6334 50.9395 77.7439 51.3078 77.9649 51.5902C78.1859 51.8725 78.4989 52.1058 78.904 52.2899C79.3091 52.4618 79.7941 52.6152 80.3588 52.7503L81.3163 52.9896C82.0652 53.1492 82.7342 53.3702 83.3235 53.6526C83.925 53.9226 84.4038 54.2971 84.7598 54.7758C85.1158 55.2423 85.2938 55.8561 85.2938 56.6173C85.2938 57.3784 85.1035 58.0413 84.723 58.606C84.3424 59.1707 83.8022 59.6127 83.1025 59.9318C82.415 60.2388 81.6048 60.3922 80.6718 60.3922Z" fill="black"/>
<path d="M90.2842 60.1344V48.6439H86.141V47.2444H95.9743V48.6439H91.831V60.1344H90.2842Z" fill="black"/>
<path d="M102.044 60.3922C100.51 60.3922 99.2822 59.9503 98.3615 59.0664C97.4531 58.1702 96.9988 56.8689 96.9988 55.1625V52.2162C96.9988 50.5098 97.4531 49.2147 98.3615 48.3308C99.2822 47.4347 100.51 46.9866 102.044 46.9866C103.591 46.9866 104.819 47.4347 105.727 48.3308C106.648 49.2147 107.108 50.5098 107.108 52.2162V55.1625C107.108 56.8689 106.648 58.1702 105.727 59.0664C104.819 59.9503 103.591 60.3922 102.044 60.3922ZM102.044 59.0111C103.162 59.0111 104.027 58.6797 104.641 58.0168C105.255 57.3416 105.562 56.4086 105.562 55.2178V52.161C105.562 50.9702 105.255 50.0434 104.641 49.3804C104.027 48.7052 103.162 48.3676 102.044 48.3676C100.94 48.3676 100.08 48.7052 99.4664 49.3804C98.8525 50.0434 98.5456 50.9702 98.5456 52.161V55.2178C98.5456 56.4086 98.8525 57.3416 99.4664 58.0168C100.08 58.6797 100.94 59.0111 102.044 59.0111Z" fill="black"/>
<path d="M109.685 60.1344V47.2444H114.897C115.695 47.2444 116.394 47.3855 116.996 47.6679C117.61 47.938 118.088 48.3308 118.432 48.8464C118.776 49.3497 118.948 49.9574 118.948 50.6694V50.872C118.948 51.7191 118.745 52.3881 118.34 52.8792C117.935 53.3702 117.456 53.7017 116.904 53.8735V54.1313C117.346 54.1436 117.708 54.2909 117.99 54.5733C118.285 54.8434 118.432 55.2546 118.432 55.807V60.1344H116.904V55.9912C116.904 55.6229 116.799 55.3405 116.591 55.1441C116.394 54.9477 116.093 54.8495 115.688 54.8495H111.232V60.1344H109.685ZM111.232 53.45H114.749C115.596 53.45 116.247 53.2474 116.701 52.8423C117.168 52.4249 117.401 51.848 117.401 51.1114V50.9825C117.401 50.2459 117.174 49.6751 116.72 49.27C116.265 48.8526 115.609 48.6439 114.749 48.6439H111.232V53.45Z" fill="black"/>
<path d="M121.302 60.1344V47.2444H122.849V60.1344H121.302Z" fill="black"/>
<path d="M125.798 60.1344V47.2444H133.734V48.6439H127.345V52.9528H133.219V54.3523H127.345V58.7349H133.826V60.1344H125.798Z" fill="black"/>
<path d="M140.464 60.3922C139.531 60.3922 138.697 60.2265 137.96 59.895C137.224 59.5636 136.64 59.0664 136.211 58.4035C135.793 57.7283 135.585 56.8873 135.585 55.8807V55.494H137.113V55.8807C137.113 56.9487 137.426 57.7467 138.052 58.2746C138.678 58.7902 139.482 59.048 140.464 59.048C141.471 59.048 142.238 58.8209 142.766 58.3666C143.294 57.9124 143.558 57.3416 143.558 56.6541C143.558 56.1753 143.435 55.7948 143.19 55.5124C142.956 55.2301 142.625 55.0029 142.195 54.8311C141.766 54.6469 141.262 54.4873 140.685 54.3523L139.728 54.1129C138.979 53.9165 138.316 53.6771 137.739 53.3948C137.162 53.1124 136.708 52.7441 136.376 52.2899C136.057 51.8234 135.898 51.228 135.898 50.5037C135.898 49.7794 136.076 49.1533 136.432 48.6254C136.8 48.0976 137.309 47.6925 137.96 47.4101C138.623 47.1277 139.384 46.9866 140.243 46.9866C141.115 46.9866 141.895 47.14 142.582 47.4469C143.282 47.7416 143.828 48.1835 144.221 48.7728C144.626 49.3497 144.829 50.0802 144.829 50.9641V51.7375H143.3V50.9641C143.3 50.338 143.165 49.8347 142.895 49.4541C142.637 49.0735 142.275 48.7912 141.809 48.607C141.354 48.4229 140.833 48.3308 140.243 48.3308C139.396 48.3308 138.715 48.5211 138.199 48.9017C137.684 49.27 137.426 49.7978 137.426 50.4853C137.426 50.9395 137.537 51.3078 137.758 51.5902C137.978 51.8725 138.292 52.1058 138.697 52.2899C139.102 52.4618 139.587 52.6152 140.151 52.7503L141.109 52.9896C141.858 53.1492 142.527 53.3702 143.116 53.6526C143.718 53.9226 144.196 54.2971 144.552 54.7758C144.908 55.2423 145.086 55.8561 145.086 56.6173C145.086 57.3784 144.896 58.0413 144.516 58.606C144.135 59.1707 143.595 59.6127 142.895 59.9318C142.208 60.2388 141.397 60.3922 140.464 60.3922Z" fill="black"/>
<path d="M158.716 54.1982C158.716 54.9561 158.588 55.7139 158.331 56.4718C158.074 57.2296 157.701 57.8943 157.213 58.4659C156.719 59.0568 156.122 59.5321 155.421 59.8917C154.728 60.2449 153.922 60.4216 153.003 60.4216C151.937 60.4216 151.07 60.078 150.402 59.3908C149.741 58.7036 149.41 57.7787 149.41 56.6163C149.41 55.7621 149.551 54.9657 149.834 54.2271C150.117 53.4886 150.495 52.8399 150.971 52.2812C151.452 51.7224 152.047 51.2728 152.753 50.9324C153.466 50.5856 154.237 50.4122 155.065 50.4122C156.208 50.4122 157.101 50.7623 157.743 51.4623C158.392 52.1559 158.716 53.0679 158.716 54.1982ZM156.751 53.8322C156.751 52.9202 156.587 52.2362 156.26 51.7802C155.938 51.3242 155.473 51.0962 154.863 51.0962C154.33 51.0962 153.826 51.26 153.35 51.5875C152.881 51.9151 152.477 52.4481 152.136 53.1867C151.873 53.7455 151.68 54.3684 151.558 55.0556C151.436 55.7364 151.375 56.3658 151.375 56.9438C151.375 57.8622 151.533 58.5591 151.847 59.0343C152.169 59.5032 152.65 59.7376 153.292 59.7376C153.864 59.7376 154.371 59.5577 154.815 59.1981C155.258 58.8384 155.617 58.3824 155.894 57.8301C156.17 57.2906 156.382 56.6741 156.529 55.9805C156.677 55.2804 156.751 54.5643 156.751 53.8322Z" fill="#FC714A"/>
<path d="M164.13 51.5972L162.435 59.5545C162.133 60.9803 161.497 62.146 160.527 63.0515C159.558 63.9571 158.559 64.4099 157.531 64.4099C156.966 64.4099 156.552 64.3007 156.289 64.0823C156.019 63.8704 155.884 63.6007 155.884 63.2731C155.884 62.9969 155.967 62.7529 156.134 62.541C156.301 62.329 156.542 62.223 156.857 62.223C157.056 62.223 157.233 62.268 157.387 62.3579C157.534 62.4478 157.666 62.5602 157.782 62.6951C157.872 62.8043 157.974 62.952 158.09 63.1382C158.199 63.3245 158.296 63.485 158.379 63.6199C158.874 63.5814 159.294 63.2474 159.641 62.618C159.994 61.9886 160.299 61.0895 160.556 59.9206L162.329 51.5972H160.45L160.653 50.7205H162.512L162.647 50.0654C162.801 49.3204 163.045 48.6493 163.379 48.052C163.713 47.4547 164.092 46.9473 164.516 46.5299C164.933 46.1189 165.405 45.7977 165.932 45.5665C166.465 45.3289 166.975 45.2101 167.463 45.2101C168.029 45.2101 168.443 45.3193 168.706 45.5376C168.976 45.7496 169.111 46.0193 169.111 46.3468C169.111 46.623 169.031 46.8671 168.87 47.079C168.716 47.2909 168.472 47.3969 168.138 47.3969C167.939 47.3969 167.765 47.3552 167.618 47.2717C167.47 47.1818 167.338 47.0662 167.223 46.9249C167.094 46.7643 166.991 46.6134 166.914 46.4721C166.837 46.3308 166.741 46.1734 166.625 46C166.182 46.0193 165.79 46.3115 165.45 46.8767C165.11 47.4419 164.801 48.3828 164.525 49.6993L164.313 50.7205H166.731L166.529 51.5972H164.13Z" fill="#FC714A"/>
</svg>
