<svg width="64" height="16" viewBox="0 0 64 16" fill="none" xmlns="http://www.w3.org/2000/svg">
<mask id="mask0_67_123" style="mask-type:alpha" maskUnits="userSpaceOnUse" x="0" y="0" width="64" height="16">
<path d="M13.6782 0.586426H0V14.8558H13.6782V0.586426Z" fill="black"/>
<path d="M49.1276 15.4422H34.3252V0L49.1276 15.4422Z" fill="black"/>
<path d="M24.044 15.4344C28.1295 15.4344 31.4415 11.9793 31.4415 7.71718C31.4415 3.4551 28.1295 0 24.044 0C19.9585 0 16.6465 3.4551 16.6465 7.71718C16.6465 11.9793 19.9585 15.4344 24.044 15.4344Z" fill="black"/>
<path d="M56.6026 15.4344C60.6881 15.4344 64.0001 11.9793 64.0001 7.71718C64.0001 3.4551 60.6881 0 56.6026 0C52.517 0 49.2051 3.4551 49.2051 7.71718C49.2051 11.9793 52.517 15.4344 56.6026 15.4344Z" fill="black"/>
</mask>
<g mask="url(#mask0_67_123)">
<rect x="-0.34082" y="-24.4414" width="64.3399" height="64.3399" fill="white"/>
</g>
</svg>
